# Blender 4.5.3 LTS
# www.blender.org
mtllib leaves.mtl
o group1173903527.001
v -0.002152 -0.070814 0.015992
v -0.198604 0.025711 0.178297
v -0.166690 0.016557 0.105218
v -0.203729 0.011230 0.046797
v -0.253417 0.050542 -0.043709
v -0.089289 -0.008607 -0.039527
v 0.030148 -0.000098 -0.270830
v -0.001711 -0.034987 -0.045016
v 0.186571 -0.006920 -0.145501
v 0.081557 -0.018452 -0.022912
v 0.272097 0.018333 -0.019569
v 0.215643 0.000445 0.072325
v 0.131389 0.009058 0.127323
v 0.139404 0.018744 0.208706
v -0.011459 0.008344 0.153417
v -0.151526 0.029676 -0.172368
v 0.021765 -0.048759 -0.148642
vn -0.0142 -0.8669 0.4984
vn -0.5151 -0.8489 -0.1186
vn -0.3231 -0.9017 0.2871
vn -0.3940 -0.9022 -0.1755
vn -0.2867 -0.8295 -0.4794
vn -0.6022 -0.7966 0.0526
vn 0.9457 0.2743 0.1741
vn 0.9402 0.2908 0.1776
vn 0.2467 -0.9646 -0.0934
vn 0.6147 -0.6359 0.4667
vn 0.1536 -0.7357 -0.6597
vn 0.3097 -0.9508 0.0052
vn 0.1826 -0.8894 0.4190
vn 0.4767 -0.8772 0.0574
vn -0.1198 -0.8638 0.4894
vn -0.3856 -0.9055 -0.1773
vn -0.3412 -0.8650 -0.3679
vn 0.2371 -0.9080 -0.3454
vn 0.2546 0.9496 0.1826
vn 0.2935 0.9463 0.1352
vn -0.0261 0.9930 -0.1156
vn 0.0803 0.9928 -0.0893
vn 0.0994 0.9833 -0.1527
vn -0.0454 0.9740 -0.2221
vn 0.0812 0.9895 -0.1197
vn 0.2719 0.9429 -0.1925
vn -0.1342 0.9667 -0.2177
vn -0.0237 0.9864 -0.1624
vn -0.1903 0.9790 0.0737
vn -0.0188 0.9968 0.0777
vn -0.2234 0.9676 0.1180
vn 0.3257 0.9194 0.2205
vt -0.208009 0.036794
vt -0.198663 0.024056
vt -0.220128 0.031466
vt -0.227367 0.029854
vt -0.233968 0.030936
vt -0.245033 0.044122
vt -0.210156 -0.017949
vt -0.212854 -0.023062
vt -0.225139 -0.009476
vt -0.235392 0.062229
vt -0.242260 0.056097
vt -0.240521 0.079813
vt -0.197064 0.144161
vt -0.193312 0.158211
vt -0.186202 0.165314
vt -0.233475 -0.065740
vt -0.229109 -0.044471
vt -0.227827 -0.054439
vt -0.225963 -0.077035
vt -0.239782 -0.079178
vt -0.250706 -0.078048
vt -0.250375 -0.080452
vt -0.231330 -0.077829
vt -0.225635 -0.079357
vt -0.238276 0.082453
vt -0.252251 0.081941
vt -0.254921 0.095859
vt -0.254933 0.097621
vt -0.242818 0.091696
vt -0.238464 0.083999
vt -0.157294 0.142814
vt -0.156459 0.158966
vt -0.153204 0.134972
vt -0.250727 0.097854
vt -0.242144 0.094800
vt -0.242349 0.075136
vt -0.236292 0.075145
vt -0.229290 0.070476
vt -0.234851 0.055533
vt -0.236540 0.083946
vt -0.230137 0.086414
vt -0.242697 0.069239
vt -0.204860 0.033957
vt -0.202812 0.020697
vt -0.214840 0.015165
vt -0.254034 0.064237
vt -0.254232 0.080210
vt -0.240271 0.081031
vt -0.228978 0.127508
vt -0.236029 0.143412
vt -0.225055 0.142992
vt -0.238835 0.103684
vt -0.229424 0.117495
vt -0.227856 0.103410
vt 0.243647 0.088618
vt 0.262856 0.087825
vt 0.252523 0.073828
vt 0.255278 0.059086
vt 0.245384 0.066943
vt 0.247242 0.074349
vt 0.233392 0.061830
vt 0.232796 0.075235
vt 0.239092 0.072505
vt 0.232973 0.042119
vt 0.226313 0.041493
vt 0.233270 0.055678
vt 0.234080 0.028201
vt 0.230569 0.032794
vt 0.231421 0.046330
vt 0.236967 0.065277
vt 0.243763 0.070241
vt 0.230822 0.054853
vt 0.245768 0.040599
vt 0.235710 0.033945
vt 0.232638 0.052009
vt 0.240742 0.010404
vt 0.236830 0.003847
vt 0.224953 0.016556
vt 0.248572 0.064585
vt 0.248177 0.057285
vt 0.231974 0.062246
vt 0.245083 0.073168
vt 0.249059 0.059958
vt 0.232477 0.057504
vt 0.239672 0.101219
vt 0.248213 0.104387
vt 0.245067 0.088522
vt 0.246694 0.086877
vt 0.258571 0.093265
vt 0.266038 0.078313
vt 0.261681 0.083943
vt 0.242464 0.084527
vt 0.242049 0.091825
vt 0.239742 0.088202
vt 0.238835 0.073688
vt 0.231566 0.079337
s 1
usemtl mat1
f 15/1/1 2/2/1 1/3/1
f 2/4/2 3/5/2 1/6/2
f 3/7/3 4/8/3 1/9/3
f 4/10/4 5/11/4 1/12/4
f 5/13/5 6/14/5 1/15/5
f 16/16/6 1/17/6 6/18/6
f 1/19/7 17/20/7 7/21/7
f 7/22/8 8/23/8 1/24/8
f 1/25/9 17/26/9 9/27/9
f 9/28/10 10/29/10 1/30/10
f 10/31/11 11/32/11 1/33/11
f 11/34/12 12/35/12 1/36/12
f 12/37/13 13/38/13 1/39/13
f 13/40/14 14/41/14 1/42/14
f 14/43/15 15/44/15 1/45/15
f 16/46/16 17/47/16 1/48/16
f 16/49/17 7/50/17 17/51/17
f 7/52/18 9/53/18 17/54/18
f 8/55/19 7/56/19 16/57/19
f 16/58/20 6/59/20 8/60/20
f 15/61/21 14/62/21 13/63/21
f 3/64/22 2/65/22 15/66/22
f 4/67/23 3/68/23 15/69/23
f 13/70/24 12/71/24 15/72/24
f 6/73/25 4/74/25 15/75/25
f 8/76/26 6/77/26 15/78/26
f 10/79/27 8/80/27 15/81/27
f 12/82/28 10/83/28 15/84/28
f 12/85/29 11/86/29 10/87/29
f 10/88/30 9/89/30 7/90/30
f 7/91/31 8/92/31 10/93/31
f 6/94/32 5/95/32 4/96/32
